Coordinates
version=1
nRows=13
nColumns=40
inDegrees=yes

Units are S.I. units (second, meters, Newtons, ...)
Angles are in degrees.

endheader
time	pelvis_tilt	pelvis_list	pelvis_rotation	pelvis_tx	pelvis_ty	pelvis_tz	hip_flexion_r	hip_adduction_r	hip_rotation_r	knee_angle_r	knee_angle_r_beta	ankle_angle_r	subtalar_angle_r	mtp_angle_r	hip_flexion_l	hip_adduction_l	hip_rotation_l	knee_angle_l	knee_angle_l_beta	ankle_angle_l	subtalar_angle_l	mtp_angle_l	lumbar_extension	lumbar_bending	lumbar_rotation	arm_flex_r	arm_add_r	arm_rot_r	elbow_flex_r	pro_sup_r	wrist_flex_r	wrist_dev_r	arm_flex_l	arm_add_l	arm_rot_l	elbow_flex_l	pro_sup_l	wrist_flex_l	wrist_dev_l
     10.40250000	     -3.82494417	     -7.06803698	      4.38397859	      1.00054968	      0.92980139	      0.49958748	      8.41919147	      5.93990228	    -15.62061035	     12.41549443	     12.41549443	      9.81354359	     -0.11269219	     -4.25306372	     36.69376658	    -13.01346591	      4.10567729	     53.02756755	     53.02756755	     11.27031198	    -19.25131902	     19.18651673	    -12.40848966	      6.89567589	      3.46764764	     18.61150691	    -17.84634513	     -1.14985691	     66.18344325	     44.99273060	      0.00000000	      0.00000000	      8.34864822	     -7.85807189	      0.79734212	     26.97447968	     46.82811864	      0.00000000	      0.00000000
     10.41385714	     -3.89134565	     -6.84124316	      4.65547238	      0.99962278	      0.92962903	      0.49894864	      7.87064542	      5.72916526	    -15.62704735	     12.22269138	     12.22269138	     10.21375014	     -0.20290766	     -4.34035253	     37.05326412	    -12.16444432	      4.32581616	     49.60458278	     49.60458278	     11.10329952	    -19.05914546	     19.12912206	    -12.41285059	      6.61022583	      3.25644807	     21.21156554	    -17.80967305	     -1.55839151	     68.17379624	     44.95592748	      0.00000000	      0.00000000	      6.82484920	     -7.85781105	      0.90706507	     25.63236478	     46.77869530	      0.00000000	      0.00000000
     10.42521429	     -3.96035383	     -6.72706387	      4.93117163	      0.99879054	      0.92933870	      0.49815999	      7.30238900	      5.62180314	    -15.78154671	     11.98777927	     11.98777927	     10.58147804	     -0.06327239	     -4.45974572	     37.27917736	    -11.35568157	      4.79503988	     46.02024820	     46.02024820	     10.67848126	    -18.70132862	     18.22272175	    -12.41937407	      6.50250102	      2.79459373	     23.77290939	    -17.58195147	     -1.69451616	     70.83303728	     44.89005116	      0.00000000	      0.00000000	      5.34765802	     -7.83690880	      1.12092356	     23.73458154	     46.71168683	      0.00000000	      0.00000000
     10.43657143	     -4.05923664	     -6.60973193	      5.14112688	      0.99813532	      0.92889954	      0.49731715	      6.72903002	      5.48670748	    -16.13013213	     11.72609666	     11.72609666	     10.96772077	      0.39389026	     -4.64349101	     37.28065908	    -10.67045654	      5.07743806	     42.12500198	     42.12500198	      9.27357237	    -18.09138635	     14.41486856	    -12.36929721	      6.36720663	      3.27373151	     25.64208567	    -18.30054198	     -1.57275327	     74.09040757	     44.81450998	      0.00000000	      0.00000000	      4.53084780	     -7.60140545	      1.58473093	     21.31790526	     46.59793261	      0.00000000	      0.00000000
     10.44792857	     -4.13887064	     -6.52663377	      5.30823064	      0.99761448	      0.92848187	      0.49648859	      6.10603403	      5.42639056	    -16.19726099	     11.41631164	     11.41631164	     11.35982278	      0.66731276	     -4.73446058	     37.14625321	    -10.06309495	      5.42314520	     38.22090404	     38.22090404	      8.27168538	    -17.08491239	     11.54694718	    -12.34311597	      6.26484709	      3.33877091	     27.92987092	    -18.31572092	     -2.15865993	     76.52433747	     44.80603222	      0.00000000	      0.00000000	      3.01651401	     -7.60025197	      1.99708426	     20.59997155	     46.44427306	      0.00000000	      0.00000000
     10.45928571	     -4.40933278	     -6.66314642	      5.44690443	      0.99703965	      0.92758867	      0.49562851	      5.81243640	      5.56322528	    -16.25463113	     11.28145726	     11.28145726	     11.69371433	      0.68559128	     -4.87134513	     37.40770690	     -9.65182329	      5.94702009	     34.83469445	     34.83469445	      8.55332011	    -15.48503097	     11.75529223	    -11.99795496	      6.38179688	      3.86668109	     30.26522347	    -18.87171133	     -2.59309928	     77.59915920	     44.79727863	      0.00000000	      0.00000000	      1.61105024	     -7.46853788	      2.01268934	     20.06130961	     46.41079381	      0.00000000	      0.00000000
     10.47064286	     -4.42041811	     -6.36725330	      5.53278019	      0.99688634	      0.92736610	      0.49461584	      4.96738349	      5.30037655	    -16.26623417	     10.77743597	     10.77743597	     12.04240840	      1.04425395	     -4.92981265	     37.00906331	     -9.07194638	      5.74945685	     31.26859648	     31.26859648	      8.77891755	    -13.31923514	     11.72242750	    -12.07219256	      6.01808181	      3.67050067	     32.79303740	    -18.36943158	     -2.75649406	     79.74381323	     44.74716844	      0.00000000	      0.00000000	      0.00755550	     -7.51413799	      2.08047825	     19.49196009	     46.35695671	      0.00000000	      0.00000000
     10.48200000	     -4.39690454	     -6.44031832	      5.64765715	      0.99702270	      0.92680924	      0.49362514	      4.03246363	      5.44089221	    -16.55732268	     10.14766815	     10.14766815	     12.37689195	      1.80352148	     -4.98565197	     36.76960991	     -8.90445085	      5.52866111	     28.22545484	     28.22545484	      8.96081877	    -11.11793966	     11.26295666	    -12.09425599	      6.11762817	      3.43364840	     35.16588933	    -17.92666923	     -2.83366324	     82.18208422	     44.68996045	      0.00000000	      0.00000000	     -1.98868412	     -7.58363147	      2.16390806	     19.50239899	     46.27193522	      0.00000000	      0.00000000
     10.49335714	     -4.45480547	     -6.48461548	      5.70633981	      0.99726747	      0.92606116	      0.49253279	      3.22482418	      5.52863105	    -16.76729389	      9.61809747	      9.61809747	     12.74009301	      2.46911376	     -5.00832707	     36.54907727	     -8.71546284	      5.17931920	     25.45817223	     25.45817223	      9.02560400	     -9.36787807	     11.04320866	    -12.02202740	      6.16866049	      3.54729772	     37.40636632	    -17.82068584	     -2.96610458	     84.09155741	     44.65461192	      0.00000000	      0.00000000	     -3.92602759	     -7.63468918	      2.26943424	     20.04780574	     46.17192721	      0.00000000	      0.00000000
     10.50471429	     -4.52461316	     -6.49952388	      5.71042645	      0.99764525	      0.92523223	      0.49138485	      2.48078246	      5.57325172	    -16.80808360	      9.20444698	      9.20444698	     13.12396836	      2.90530006	     -5.03696225	     36.28962827	     -8.51710949	      4.71650116	     23.06376686	     23.06376686	      9.05185243	     -8.15459350	     11.26461679	    -11.88422452	      6.14093042	      3.80027839	     39.54278542	    -17.75241957	     -3.14783320	     85.52403217	     44.63156872	      0.00000000	      0.00000000	     -5.66634792	     -7.65859347	      2.34950784	     20.30764365	     46.09440807	      0.00000000	      0.00000000
     10.51607143	     -4.59183787	     -6.62475415	      5.76143681	      0.99820684	      0.92418148	      0.49011577	      1.64750507	      5.74274002	    -17.03882677	      8.63733256	      8.63733256	     13.53545434	      3.67469054	     -4.92285674	     36.18123968	     -8.42085370	      4.16135496	     21.35442367	     21.35442367	      9.05548358	     -7.33153574	     11.45924480	    -11.76532224	      6.28269254	      3.78012374	     41.73350919	    -17.41609461	     -3.19372548	     87.16381733	     44.60808062	      0.00000000	      0.00000000	     -7.86562385	     -7.72878297	      2.57775275	     21.61427892	     45.94953801	      0.00000000	      0.00000000
     10.52742857	     -4.77472663	     -6.74203261	      5.72205700	      0.99882376	      0.92276246	      0.48878254	      1.13148974	      5.84754672	    -16.93408318	      8.45151223	      8.45151223	     13.99340233	      3.82936559	     -5.00834529	     36.25600201	     -8.33452389	      3.55957943	     20.25687228	     20.25687228	      8.92708833	     -7.14244907	     11.72776963	    -11.38593530	      6.39332218	      4.29733196	     43.68511119	    -17.65616121	     -3.46850863	     87.95662666	     44.60303252	      0.00000000	      0.00000000	     -9.29019478	     -7.63815151	      2.61590588	     21.47188585	     45.90544512	      0.00000000	      0.00000000
     10.53878571	     -4.69785660	     -6.72455038	      5.70549334	      0.99979815	      0.92179563	      0.48729379	      0.13894810	      5.86140900	    -16.98814507	      7.96034325	      7.96034325	     14.45599515	      4.39430214	     -4.84474218	     35.81518854	     -8.17128456	      2.83990760	     19.29354867	     19.29354867	      8.69865190	     -7.29192348	     12.05763075	    -11.42475208	      6.36760355	      4.10450634	     45.65603203	    -16.97967119	     -3.38969500	     89.46358681	     44.57103893	      0.00000000	      0.00000000	    -11.27024872	     -7.63228965	      2.77175338	     22.17223370	     45.80536743	      0.00000000	      0.00000000
